<?xml version="1.0" encoding="UTF-8" standalone="no"?>
<svg
   width="300.87"
   height="400.46497"
   viewBox="0 0 300.87 400.46497"
   fill="none"
   version="1.1"
   id="svg564"
   sodipodi:docname="theme 3 (b).svg"
   xmlns:inkscape="http://www.inkscape.org/namespaces/inkscape"
   xmlns:sodipodi="http://sodipodi.sourceforge.net/DTD/sodipodi-0.dtd"
   xmlns="http://www.w3.org/2000/svg"
   xmlns:svg="http://www.w3.org/2000/svg">
  <sodipodi:namedview
     id="namedview566"
     pagecolor="#ffffff"
     bordercolor="#000000"
     borderopacity="0.25"
     inkscape:showpageshadow="2"
     inkscape:pageopacity="0.0"
     inkscape:pagecheckerboard="0"
     inkscape:deskcolor="#d1d1d1"
     showgrid="false"
     inkscape:zoom="0.3275"
     inkscape:cx="2000"
     inkscape:cy="500.76336"
     inkscape:window-width="1452"
     inkscape:window-height="773"
     inkscape:window-x="50"
     inkscape:window-y="89"
     inkscape:window-maximized="0"
     inkscape:current-layer="svg564" />
  <g
     clip-path="url(#clip0_1893_33436)"
     id="g557"
     transform="translate(-1099.5601,-549.76703)">
    <path
       d="m 1182.2,873.418 -0.95,-1.293 c -21.2,-28.932 -33.36,-59.64 -36.14,-91.273 -2.24,-25.496 1.58,-51.646 11.35,-77.723 15.16,-40.435 40.09,-68.653 47.23,-76.212 -4.03,-7.561 -6.16,-16.043 -6.16,-24.683 0,-28.93 23.54,-52.467 52.47,-52.467 13.23,0 25.86,4.938 35.57,13.901 9.66,8.911 15.59,21.003 16.71,34.049 0.11,1.38 0.18,2.791 0.19,4.199 l 0.01,1.309 -0.67,0.677 -16.66,27.262 -8.77,15.837 -29.64,61.781 c -6.99,16.641 -13.09,56.381 -14.84,68.521 h 21.08 c 7.25,-47.466 20.32,-81.253 30.09,-101.36 10.86,-22.352 19.96,-32.981 20.34,-33.424 l 2.23,-2.569 2.49,2.489 0.09,0.106 c 1.85,2.168 3.69,4.396 5.46,6.622 21.24,26.654 34.55,54.981 39.55,84.192 4.01,23.404 2.72,47.393 -3.83,71.303 -5.81,21.222 -14.79,38.452 -21.29,49.171 -7.08,11.65 -12.73,18.219 -12.96,18.492 l -0.95,1.092 h -132 z"
       fill="#211802"
       id="path481" />
    <path
       d="m 1099.56,950.232 0.05,-3.207 c 0.32,-21.877 3.72,-37.588 3.86,-38.246 3.78,-16.803 11.53,-28.848 23.03,-35.815 8.99,-5.443 17.38,-5.867 19.74,-5.867 0.25,0 0.43,0.004 0.53,0.008 h 206.46 c 0.1,-0.004 0.28,-0.008 0.52,-0.008 2.36,0 10.76,0.422 19.75,5.867 11.5,6.965 19.24,19.01 23.02,35.801 0.15,0.672 3.55,16.383 3.87,38.26 l 0.04,3.207 z"
       fill="#211802"
       id="path489" />
  </g>
  <defs
     id="defs562">
    <clipPath
       id="clip0_1893_33436">
      <rect
         width="4000"
         height="1000"
         fill="#ffffff"
         id="rect559"
         x="0"
         y="0" />
    </clipPath>
  </defs>
</svg>
