<?xml version="1.0" encoding="UTF-8" standalone="no"?>
<svg
   width="361.87305"
   height="391.88196"
   viewBox="0 0 361.87305 391.88196"
   fill="none"
   version="1.1"
   id="svg564"
   sodipodi:docname="theme 3 (b).svg"
   xmlns:inkscape="http://www.inkscape.org/namespaces/inkscape"
   xmlns:sodipodi="http://sodipodi.sourceforge.net/DTD/sodipodi-0.dtd"
   xmlns="http://www.w3.org/2000/svg"
   xmlns:svg="http://www.w3.org/2000/svg">
  <sodipodi:namedview
     id="namedview566"
     pagecolor="#ffffff"
     bordercolor="#000000"
     borderopacity="0.25"
     inkscape:showpageshadow="2"
     inkscape:pageopacity="0.0"
     inkscape:pagecheckerboard="0"
     inkscape:deskcolor="#d1d1d1"
     showgrid="false"
     inkscape:zoom="0.3275"
     inkscape:cx="2000"
     inkscape:cy="500.76336"
     inkscape:window-width="1452"
     inkscape:window-height="773"
     inkscape:window-x="50"
     inkscape:window-y="89"
     inkscape:window-maximized="0"
     inkscape:current-layer="svg564" />
  <g
     clip-path="url(#clip0_1893_33436)"
     id="g557"
     transform="translate(-2069.0635,-554.05902)">
    <path
       d="m 2151.94,869.532 -0.83,-1.86 c -7.68,-17.15 -44.49,-52.006 -44.86,-52.356 l -0.04,-0.045 -0.05,-0.048 c -7.78,-7.992 -16.53,-19.045 -16.9,-19.511 l -0.07,-0.087 -0.06,-0.092 c -11.6,-17.016 -18.24,-34.246 -19.74,-51.215 -1.2,-13.65 0.91,-27.125 6.27,-40.052 9.09,-21.926 24.25,-34.523 24.89,-35.049 l 0.07,-0.055 c 16.81,-13.032 36.23,-19.641 57.71,-19.641 26.78,0 49.09,10.21 57.75,14.785 l 5.5,-25.358 h -29.43 V 585.5 h 31.76 v -31.441 h 52.19 V 585.5 h 31.75 v 53.449 h -29.43 l 5.51,25.361 c 7.19,-3.796 23.84,-11.489 44.69,-13.991 4.39,-0.528 8.78,-0.796 13.06,-0.796 21.48,0 40.89,6.608 57.71,19.64 l 0.06,0.055 c 0.64,0.525 15.8,13.123 24.89,35.049 5.36,12.927 7.47,26.401 6.27,40.052 -1.5,16.969 -8.14,34.199 -19.74,51.215 l -0.06,0.092 -0.07,0.087 c -0.37,0.466 -9.12,11.519 -16.9,19.511 l -0.04,0.048 -0.05,0.045 c -0.37,0.351 -37.18,35.212 -44.85,52.356 l -0.84,1.86 h -196.12 z m 152.95,-70.899 c 13.06,-14.275 30.02,-30.046 30.68,-30.653 15.39,-14.692 10.67,-28.661 10.01,-30.36 -5.14,-8.751 -12.35,-13.004 -22.01,-13.004 -14.71,0 -30.33,10.123 -34.76,13.223 v 60.795 z m -93.69,0 v -60.795 c -4.44,-3.099 -20.06,-13.223 -34.77,-13.223 -9.66,0 -16.87,4.255 -22.01,13.007 -0.64,1.631 -5.42,15.631 10.01,30.357 0.66,0.607 17.62,16.378 30.68,30.653 z"
       fill="#211802"
       id="path449" />
    <path
       d="m 2100.35,945.941 0.05,-3.189 c 0.31,-21.763 3.7,-37.39 3.84,-38.045 3.76,-16.715 11.47,-28.697 22.91,-35.626 8.94,-5.416 17.29,-5.837 19.64,-5.837 0.24,0 0.42,0.004 0.52,0.008 h 205.38 c 0.1,-0.004 0.28,-0.008 0.53,-0.008 2.34,0 10.69,0.42 19.63,5.836 11.44,6.929 19.15,18.911 22.9,35.613 0.15,0.669 3.54,16.296 3.85,38.059 l 0.05,3.189 z"
       fill="#211802"
       id="path455" />
  </g>
  <defs
     id="defs562">
    <clipPath
       id="clip0_1893_33436">
      <rect
         width="4000"
         height="1000"
         fill="#ffffff"
         id="rect559"
         x="0"
         y="0" />
    </clipPath>
  </defs>
</svg>
