<?xml version="1.0" encoding="UTF-8" standalone="no"?>
<svg
   width="325.01593"
   height="390.07397"
   viewBox="0 0 325.01593 390.07397"
   fill="none"
   version="1.1"
   id="svg564"
   sodipodi:docname="theme 3 (b).svg"
   xmlns:inkscape="http://www.inkscape.org/namespaces/inkscape"
   xmlns:sodipodi="http://sodipodi.sourceforge.net/DTD/sodipodi-0.dtd"
   xmlns="http://www.w3.org/2000/svg"
   xmlns:svg="http://www.w3.org/2000/svg">
  <sodipodi:namedview
     id="namedview566"
     pagecolor="#ffffff"
     bordercolor="#000000"
     borderopacity="0.25"
     inkscape:showpageshadow="2"
     inkscape:pageopacity="0.0"
     inkscape:pagecheckerboard="0"
     inkscape:deskcolor="#d1d1d1"
     showgrid="false"
     inkscape:zoom="0.3275"
     inkscape:cx="2000"
     inkscape:cy="500.76336"
     inkscape:window-width="1452"
     inkscape:window-height="773"
     inkscape:window-x="50"
     inkscape:window-y="89"
     inkscape:window-maximized="0"
     inkscape:current-layer="svg564" />
  <g
     clip-path="url(#clip0_1893_33436)"
     id="g557"
     transform="translate(-587.46307,-554.96301)">
    <path
       d="m 662.585,868.627 -0.407,-2.67 c -0.068,-0.451 -1.624,-11.238 3.862,-27.533 3.179,-9.445 8.09,-18.852 14.594,-27.957 8.076,-11.307 18.65,-22.185 31.431,-32.336 l 0.112,-0.09 0.121,-0.08 c 0.319,-0.209 32.13,-21.297 37.029,-44.436 0.726,-3.419 0.816,-6.754 0.271,-9.913 -0.08,-0.415 -2,-10.158 -7.349,-17.585 -2.64,3.424 -7.299,9.107 -13.4,15.121 -13.011,12.823 -25.767,20.564 -37.912,23.011 -0.343,0.072 -0.736,0.146 -1.218,0.229 l -0.241,0.042 -0.245,0.004 c -0.063,10e-4 -6.476,0.108 -10.039,0.31 l -0.104,0.006 -0.105,-0.002 c -0.512,0.004 -13.196,0.271 -23.05,17.555 -0.268,0.5 -2.526,4.647 -5.567,8.397 l -0.943,1.164 h -0.043 c -1.228,1.395 -2.437,2.533 -3.604,3.397 l -0.898,0.664 -1.115,-0.051 c -1.865,-0.086 -45.683,-2.334 -54.002,-24.648 -0.809,-1.703 -5.871,-13.426 2.249,-24.477 10.037,-13.575 36.801,-50.392 40.126,-57.712 0.066,-0.147 7.308,-16.362 14.071,-37.648 0.443,-2.002 4.072,-15.454 23.767,-29.803 0.466,-0.362 11.955,-9.461 13.248,-22.935 l 0.006,-0.058 c 0.282,-2.465 1.922,-14.897 6.679,-19.491 0.735,-0.813 3.993,-4.139 8.098,-4.139 1.93,0 3.747,0.736 5.258,2.131 l 0.055,0.05 31.205,31.664 c 6.403,0.129 36.597,1.781 68.276,20.94 23.119,13.977 41.891,34.023 55.792,59.583 l 0.069,0.128 0.058,0.132 c 0.133,0.311 13.43,31.518 18.961,70.534 3.261,23.002 3.237,44.217 -0.069,63.055 -4.166,23.738 -13.578,43.748 -27.976,59.475 l -0.054,0.059 -5.989,5.914 z"
       fill="#211802"
       id="path433" />
    <path
       d="m 613.18,945.037 0.046,-3.189 c 0.315,-21.764 3.702,-37.391 3.847,-38.045 3.758,-16.717 11.462,-28.697 22.901,-35.627 8.942,-5.416 17.294,-5.836 19.641,-5.836 0.247,0 0.424,0.004 0.523,0.008 h 205.383 c 0.1,-0.004 0.276,-0.008 0.523,-0.008 2.347,0 10.697,0.42 19.639,5.836 11.441,6.928 19.146,18.91 22.9,35.613 0.148,0.668 3.534,16.295 3.85,38.059 l 0.046,3.189 z"
       fill="#211802"
       id="path443" />
  </g>
  <defs
     id="defs562">
    <clipPath
       id="clip0_1893_33436">
      <rect
         width="4000"
         height="1000"
         fill="#ffffff"
         id="rect559"
         x="0"
         y="0" />
    </clipPath>
  </defs>
</svg>
