<?xml version="1.0" encoding="UTF-8" standalone="no"?>
<svg
   width="224.93124"
   height="285.48199"
   viewBox="0 0 224.93124 285.48199"
   fill="none"
   version="1.1"
   id="svg564"
   sodipodi:docname="theme 3 (b).svg"
   xmlns:inkscape="http://www.inkscape.org/namespaces/inkscape"
   xmlns:sodipodi="http://sodipodi.sourceforge.net/DTD/sodipodi-0.dtd"
   xmlns="http://www.w3.org/2000/svg"
   xmlns:svg="http://www.w3.org/2000/svg">
  <sodipodi:namedview
     id="namedview566"
     pagecolor="#ffffff"
     bordercolor="#000000"
     borderopacity="0.25"
     inkscape:showpageshadow="2"
     inkscape:pageopacity="0.0"
     inkscape:pagecheckerboard="0"
     inkscape:deskcolor="#d1d1d1"
     showgrid="false"
     inkscape:zoom="0.3275"
     inkscape:cx="2000"
     inkscape:cy="500.76336"
     inkscape:window-width="1452"
     inkscape:window-height="773"
     inkscape:window-x="50"
     inkscape:window-y="89"
     inkscape:window-maximized="0"
     inkscape:current-layer="svg564" />
  <g
     clip-path="url(#clip0_1893_33436)"
     id="g557"
     transform="translate(-137.53494,-107.259)">
    <path
       d="m 137.596,392.741 -0.048,-3.096 c -0.213,-13.773 2.249,-27.686 2.354,-28.272 3.416,-18.143 15.994,-31.573 17.08,-32.705 4.691,-5.284 20.102,-15.334 22.35,-16.788 19.298,-14.818 27.724,-31.097 31.393,-42.151 3.99,-12.019 3.395,-20.658 3.389,-20.744 l -0.256,-3.381 3.391,-0.008 h 68.911 l -0.273,3.396 c -0.006,0.078 -0.602,8.718 3.389,20.736 3.671,11.055 12.097,27.333 31.395,42.151 2.248,1.454 17.657,11.504 22.35,16.788 1.086,1.132 13.664,14.563 17.074,32.678 0.11,0.613 2.572,14.526 2.358,28.299 l -0.048,3.096 H 137.596 Z"
       fill="#211802"
       id="path333" />
    <path
       d="m 187.588,251.885 -0.926,-1.462 c -6.462,-10.204 -5.248,-26.104 -5.193,-26.776 l 0.127,-1.558 29.881,-19.016 c -10.945,-10.47 -17.127,-24.835 -17.127,-40.163 0,-30.687 24.964,-55.651 55.65,-55.651 20.118,0 38.731,10.912 48.574,28.477 4.629,8.256 7.076,17.652 7.076,27.175 0,15.328 -6.183,29.693 -17.128,40.163 l 29.882,19.016 0.127,1.558 c 0.055,0.672 1.269,16.572 -5.194,26.776 l -0.926,1.462 H 187.588 Z"
       fill="#211802"
       id="path509" />
  </g>
  <defs
     id="defs562">
    <clipPath
       id="clip0_1893_33436">
      <rect
         width="4000"
         height="1000"
         fill="#ffffff"
         id="rect559"
         x="0"
         y="0" />
    </clipPath>
  </defs>
</svg>
