<?xml version="1.0" encoding="UTF-8" standalone="no"?>
<svg
   width="384.21997"
   height="387.34796"
   viewBox="0 0 384.21997 387.34796"
   fill="none"
   version="1.1"
   id="svg564"
   sodipodi:docname="theme 3 (b).svg"
   xmlns:inkscape="http://www.inkscape.org/namespaces/inkscape"
   xmlns:sodipodi="http://sodipodi.sourceforge.net/DTD/sodipodi-0.dtd"
   xmlns="http://www.w3.org/2000/svg"
   xmlns:svg="http://www.w3.org/2000/svg">
  <sodipodi:namedview
     id="namedview566"
     pagecolor="#ffffff"
     bordercolor="#000000"
     borderopacity="0.25"
     inkscape:showpageshadow="2"
     inkscape:pageopacity="0.0"
     inkscape:pagecheckerboard="0"
     inkscape:deskcolor="#d1d1d1"
     showgrid="false"
     inkscape:zoom="0.3275"
     inkscape:cx="2000"
     inkscape:cy="500.76336"
     inkscape:window-width="1452"
     inkscape:window-height="773"
     inkscape:window-x="50"
     inkscape:window-y="89"
     inkscape:window-maximized="0"
     inkscape:current-layer="svg564" />
  <g
     clip-path="url(#clip0_1893_33436)"
     id="g557"
     transform="translate(-1557.89,-556.32501)">
    <path
       d="m 1653.74,867.264 -63.08,-149.708 c -8.87,-1.876 -16.93,-6.661 -22.86,-13.601 -6.39,-7.471 -9.91,-17.006 -9.91,-26.848 0,-22.798 18.55,-41.345 41.35,-41.345 6.18,0 12.12,1.332 17.67,3.96 6.97,3.301 12.88,8.48 17.08,14.979 4.31,6.676 6.59,14.424 6.59,22.405 0,6.243 -1.36,12.239 -4.03,17.826 l 34.42,37.485 4.58,-94.545 c -6.94,-3.219 -12.86,-8.222 -17.23,-14.57 -4.92,-7.142 -7.52,-15.517 -7.52,-24.22 0,-23.576 19.18,-42.757 42.76,-42.757 3.44,0 6.86,0.41 10.18,1.221 9.14,2.232 17.41,7.539 23.3,14.94 6.07,7.63 9.27,16.827 9.27,26.596 0,11.554 -4.68,22.602 -12.93,30.634 l 26.62,78.028 26.62,-78.028 c -8.24,-8.032 -12.93,-19.08 -12.93,-30.634 0,-23.576 19.18,-42.757 42.75,-42.757 10.74,0 20.91,3.95 28.8,11.151 h 0.03 l 0.91,0.886 c 8.4,8.125 13.02,19.034 13.02,30.72 0,16.698 -9.67,31.787 -24.75,38.79 l 4.58,94.545 34.42,-37.483 c -2.64,-5.538 -4.03,-11.655 -4.03,-17.828 0,-22.798 18.55,-41.345 41.34,-41.345 12.57,0 24.3,5.616 32.2,15.41 l 0.55,0.696 0.67,0.853 v 0.037 c 5.19,7.104 7.93,15.499 7.93,24.349 0,1.899 -0.13,3.813 -0.39,5.688 -1.6,11.583 -8.09,21.996 -17.82,28.572 l -0.04,0.028 c -4.44,2.997 -9.31,5.065 -14.52,6.161 l -63.08,149.707 h -192.52 z"
       fill="#211802"
       id="path461" />
    <path
       d="m 1600.35,943.673 0.05,-3.19 c 0.31,-21.763 3.7,-37.39 3.84,-38.045 3.76,-16.715 11.47,-28.697 22.9,-35.626 8.95,-5.416 17.3,-5.837 19.65,-5.837 0.24,0 0.42,0.004 0.52,0.008 h 205.38 c 0.1,-0.004 0.28,-0.008 0.52,-0.008 2.35,0 10.7,0.42 19.64,5.836 11.44,6.929 19.15,18.911 22.9,35.613 0.15,0.669 3.54,16.296 3.85,38.059 l 0.05,3.19 z"
       fill="#211802"
       id="path467" />
  </g>
  <defs
     id="defs562">
    <clipPath
       id="clip0_1893_33436">
      <rect
         width="4000"
         height="1000"
         fill="#ffffff"
         id="rect559"
         x="0"
         y="0" />
    </clipPath>
  </defs>
</svg>
