<?xml version="1.0" encoding="UTF-8" standalone="no"?>
<svg
   width="299.297"
   height="386.27899"
   viewBox="0 0 299.297 386.27899"
   fill="none"
   version="1.1"
   id="svg564"
   sodipodi:docname="theme 3 (b).svg"
   xmlns:inkscape="http://www.inkscape.org/namespaces/inkscape"
   xmlns:sodipodi="http://sodipodi.sourceforge.net/DTD/sodipodi-0.dtd"
   xmlns="http://www.w3.org/2000/svg"
   xmlns:svg="http://www.w3.org/2000/svg">
  <sodipodi:namedview
     id="namedview566"
     pagecolor="#ffffff"
     bordercolor="#000000"
     borderopacity="0.25"
     inkscape:showpageshadow="2"
     inkscape:pageopacity="0.0"
     inkscape:pagecheckerboard="0"
     inkscape:deskcolor="#d1d1d1"
     showgrid="false"
     inkscape:zoom="0.3275"
     inkscape:cx="2000"
     inkscape:cy="500.76336"
     inkscape:window-width="1452"
     inkscape:window-height="773"
     inkscape:window-x="50"
     inkscape:window-y="89"
     inkscape:window-maximized="0"
     inkscape:current-layer="svg564" />
  <g
     clip-path="url(#clip0_1893_33436)"
     id="g557"
     transform="translate(-100.352,-556.85999)">
    <path
       d="m 143.701,866.736 2.072,-17.295 1.406,-11.709 18.655,-155.659 h 168.332 l 18.655,155.659 3.478,29.004 z"
       fill="#211802"
       id="path399" />
    <path
       d="m 168.194,688.361 -0.416,-0.116 c -9.645,-2.696 -17.871,-7.408 -24.45,-14.003 -10.559,-10.585 -13.102,-22.263 -13.205,-22.755 l -0.038,-0.184 -6.409,-73.122 2.235,-0.839 c 7.839,-2.941 15.523,-5.331 22.839,-7.102 13.045,-3.156 21.413,-3.497 24.405,-3.497 0.743,0 1.151,0.022 1.196,0.023 l 2.158,0.12 16.464,51.278 h 13.9 l 0.886,-5.408 v -0.502 l 0.124,-0.242 8.299,-50.619 1.801,-0.601 c 7.826,-2.609 17.816,-3.932 29.691,-3.932 0.787,0 1.57,0.006 2.352,0.017 0.766,-0.011 1.533,-0.017 2.304,-0.017 3.729,0 7.314,0.133 10.659,0.395 7.264,0.563 13.667,1.752 19.027,3.537 l 1.803,0.6 9.308,56.773 h 13.901 l 16.463,-51.278 2.159,-0.12 c 0.044,-0.002 0.453,-0.023 1.197,-0.023 2.665,0 10.109,0.278 21.646,2.856 8.127,1.815 16.739,4.419 25.598,7.743 l 2.235,0.839 -6.409,73.123 -0.038,0.184 c -0.061,0.29 -1.552,7.193 -6.945,15.16 -4.956,7.319 -14.308,17.009 -30.71,21.597 l -0.415,0.116 z"
       fill="#211802"
       id="path405" />
    <path
       d="m 100.352,943.139 0.046,-3.189 c 0.315,-21.764 3.702,-37.391 3.846,-38.045 3.758,-16.717 11.462,-28.697 22.902,-35.627 8.942,-5.416 17.293,-5.838 19.64,-5.838 0.248,0 0.424,0.006 0.523,0.01 h 205.383 c 0.1,-0.004 0.276,-0.01 0.523,-0.01 2.346,0 10.696,0.422 19.639,5.836 11.44,6.93 19.145,18.912 22.899,35.615 0.147,0.668 3.534,16.295 3.85,38.059 l 0.046,3.189 z"
       fill="#211802"
       id="path411" />
  </g>
  <defs
     id="defs562">
    <clipPath
       id="clip0_1893_33436">
      <rect
         width="4000"
         height="1000"
         fill="#ffffff"
         id="rect559"
         x="0"
         y="0" />
    </clipPath>
  </defs>
</svg>
