<?xml version="1.0" encoding="UTF-8" standalone="no"?>
<svg
   width="307.28003"
   height="406.784"
   viewBox="0 0 307.28003 406.784"
   fill="none"
   version="1.1"
   id="svg2266"
   sodipodi:docname="theme 1 (a).svg"
   xmlns:inkscape="http://www.inkscape.org/namespaces/inkscape"
   xmlns:sodipodi="http://sodipodi.sourceforge.net/DTD/sodipodi-0.dtd"
   xmlns="http://www.w3.org/2000/svg"
   xmlns:svg="http://www.w3.org/2000/svg">
  <sodipodi:namedview
     id="namedview2268"
     pagecolor="#ffffff"
     bordercolor="#000000"
     borderopacity="0.25"
     inkscape:showpageshadow="2"
     inkscape:pageopacity="0.0"
     inkscape:pagecheckerboard="0"
     inkscape:deskcolor="#d1d1d1"
     showgrid="false" />
  <g
     clip-path="url(#clip0_1893_32951)"
     id="g2259"
     transform="translate(-1096.36,-546.60699)">
    <path
       d="m 1182.2,873.419 -0.95,-1.293 c -21.2,-28.932 -33.36,-59.64 -36.14,-91.273 -2.24,-25.496 1.58,-51.646 11.35,-77.723 15.16,-40.435 40.09,-68.653 47.23,-76.212 -4.03,-7.561 -6.16,-16.043 -6.16,-24.683 0,-28.93 23.54,-52.467 52.47,-52.467 13.23,0 25.86,4.938 35.57,13.901 9.66,8.911 15.59,21.003 16.71,34.049 0.11,1.38 0.18,2.791 0.19,4.199 l 0.01,1.309 -0.67,0.677 -16.66,27.262 -8.77,15.837 -29.64,61.781 c -6.99,16.641 -13.09,56.381 -14.84,68.521 h 21.08 c 7.25,-47.466 20.32,-81.253 30.09,-101.36 10.86,-22.352 19.96,-32.981 20.34,-33.424 l 2.23,-2.569 2.49,2.489 0.09,0.106 c 1.85,2.168 3.69,4.396 5.46,6.622 21.24,26.654 34.55,54.981 39.55,84.192 4.01,23.404 2.72,47.393 -3.83,71.303 -5.81,21.222 -14.79,38.452 -21.29,49.171 -7.08,11.65 -12.73,18.219 -12.96,18.492 l -0.95,1.092 h -132 z"
       fill="#eeeed5"
       id="path2183" />
    <path
       d="m 1250,552.929 c 25.8,0 46.97,19.814 49.13,45.057 0.11,1.307 0.17,2.625 0.18,3.956 0,0 0,0 -0.01,0.003 l -16.89,27.63 -8.84,15.977 -29.72,61.933 c -8.53,20.227 -15.59,72.979 -15.59,72.979 h 27.44 c 13.75,-93.866 50.1,-135.876 50.1,-135.876 0,0 0,0.003 0.01,0.013 1.87,2.182 3.67,4.361 5.4,6.536 91.65,115.01 1.55,219.121 1.55,219.121 H 1183.8 c -91.21,-124.494 18.27,-237.275 23.8,-242.838 -4.39,-7.371 -6.9,-15.983 -6.9,-25.185 0,-27.234 22.07,-49.306 49.3,-49.306 z m 0,-6.322 c -7.51,0 -14.79,1.472 -21.65,4.373 -6.63,2.803 -12.58,6.813 -17.68,11.919 -5.11,5.106 -9.12,11.055 -11.92,17.68 -2.91,6.863 -4.38,14.148 -4.38,21.655 0,8.396 1.9,16.652 5.51,24.147 -8.8,9.602 -31.96,37.186 -46.38,75.638 -9.94,26.523 -13.82,53.138 -11.53,79.11 2.83,32.213 15.19,63.457 36.73,92.863 l 1.9,2.586 h 3.2 128.96 2.89 l 1.89,-2.186 c 0.24,-0.281 6.06,-7.045 13.27,-18.92 6.61,-10.891 15.73,-28.402 21.64,-49.979 6.67,-24.357 7.99,-48.806 3.9,-72.668 -5.09,-29.744 -18.62,-58.554 -40.2,-85.631 -1.79,-2.253 -3.65,-4.509 -5.53,-6.704 l -0.16,-0.189 -0.17,-0.173 -0.02,-0.014 -4.8,-4.804 -4.45,5.139 c -0.39,0.453 -9.75,11.39 -20.79,34.109 -6.42,13.195 -12.11,27.726 -16.93,43.19 -5.51,17.666 -9.88,36.611 -13.02,56.392 h -14.72 c 2.23,-14.902 7.8,-49.1 14.06,-64.065 l 29.57,-61.626 8.69,-15.697 16.41,-26.846 1.36,-1.33 -0.02,-2.683 c -0.01,-1.489 -0.08,-2.984 -0.2,-4.444 -1.19,-13.837 -7.47,-26.658 -17.71,-36.105 -10.3,-9.502 -23.7,-14.737 -37.72,-14.737 z"
       fill="#000000"
       id="path2185" />
    <path
       d="m 1099.56,950.233 0.05,-3.207 c 0.32,-21.877 3.72,-37.588 3.86,-38.246 3.78,-16.803 11.53,-28.848 23.03,-35.815 8.99,-5.443 17.38,-5.867 19.74,-5.867 0.25,0 0.43,0.004 0.53,0.008 h 206.46 c 0.1,-0.004 0.28,-0.008 0.52,-0.008 2.36,0 10.76,0.422 19.75,5.867 11.5,6.965 19.24,19.01 23.02,35.801 0.15,0.672 3.55,16.383 3.87,38.26 l 0.04,3.207 z"
       fill="#eeeed5"
       id="path2191"
       inkscape:export-filename="./path2191.svg"
       inkscape:export-xdpi="96"
       inkscape:export-ydpi="96" />
    <path
       d="m 1353.76,870.259 c 3.88,0 31.17,1.361 39.68,39.201 0,0 3.47,15.803 3.79,37.611 h -294.46 c 0.32,-21.809 3.79,-37.611 3.79,-37.611 8.51,-37.84 35.8,-39.201 39.68,-39.201 0.3,0 0.46,0.01 0.46,0.01 h 206.6 c 0,0 0.16,-0.01 0.46,-0.01 z m 0,-6.323 v 6.322 -6.322 c -0.25,0 -0.44,0.004 -0.58,0.01 h -206.36 c -0.14,-0.006 -0.33,-0.01 -0.58,-0.01 -2.56,0 -11.69,0.457 -21.38,6.326 -5.52,3.346 -10.31,7.881 -14.23,13.482 -4.66,6.648 -8.1,14.834 -10.23,24.328 l -0.01,0.014 v 0.014 c -0.15,0.672 -3.62,16.684 -3.94,38.879 l -0.09,6.412 h 6.41 294.46 6.41 l -0.09,-6.412 c -0.32,-22.195 -3.79,-38.207 -3.94,-38.879 v -0.014 -0.014 c -2.14,-9.494 -5.58,-17.68 -10.24,-24.328 -3.92,-5.602 -8.71,-10.137 -14.23,-13.482 -9.69,-5.868 -18.82,-6.326 -21.38,-6.326 z"
       fill="#000000"
       id="path2193" />
  </g>
  <defs
     id="defs2264">
    <clipPath
       id="clip0_1893_32951">
      <rect
         width="4000"
         height="1000"
         fill="#ffffff"
         id="rect2261"
         x="0"
         y="0" />
    </clipPath>
  </defs>
</svg>
