<?xml version="1.0" encoding="UTF-8" standalone="no"?>
<svg
   width="368.15845"
   height="398.17297"
   viewBox="0 0 368.15845 398.17297"
   fill="none"
   version="1.1"
   id="svg2266"
   sodipodi:docname="theme 1 (a).svg"
   xmlns:inkscape="http://www.inkscape.org/namespaces/inkscape"
   xmlns:sodipodi="http://sodipodi.sourceforge.net/DTD/sodipodi-0.dtd"
   xmlns="http://www.w3.org/2000/svg"
   xmlns:svg="http://www.w3.org/2000/svg">
  <sodipodi:namedview
     id="namedview2268"
     pagecolor="#ffffff"
     bordercolor="#000000"
     borderopacity="0.25"
     inkscape:showpageshadow="2"
     inkscape:pageopacity="0.0"
     inkscape:pagecheckerboard="0"
     inkscape:deskcolor="#d1d1d1"
     showgrid="false" />
  <g
     clip-path="url(#clip0_1893_32951)"
     id="g2259"
     transform="translate(-2065.9226,-550.914)">
    <path
       d="m 2151.94,869.532 -0.83,-1.86 c -7.68,-17.15 -44.49,-52.006 -44.86,-52.356 l -0.04,-0.045 -0.05,-0.048 c -7.78,-7.992 -16.53,-19.045 -16.9,-19.511 l -0.07,-0.087 -0.06,-0.092 c -11.6,-17.016 -18.24,-34.246 -19.74,-51.215 -1.2,-13.65 0.91,-27.125 6.27,-40.052 9.09,-21.926 24.25,-34.523 24.89,-35.049 l 0.07,-0.055 c 16.81,-13.032 36.23,-19.641 57.71,-19.641 26.78,0 49.09,10.21 57.75,14.785 l 5.5,-25.358 h -29.43 V 585.5 h 31.76 v -31.441 h 52.19 V 585.5 h 31.75 v 53.449 h -29.43 l 5.51,25.361 c 7.19,-3.796 23.84,-11.489 44.69,-13.991 4.39,-0.528 8.78,-0.796 13.06,-0.796 21.48,0 40.89,6.608 57.71,19.64 l 0.06,0.055 c 0.64,0.525 15.8,13.123 24.89,35.049 5.36,12.927 7.47,26.401 6.27,40.052 -1.5,16.969 -8.14,34.199 -19.74,51.215 l -0.06,0.092 -0.07,0.087 c -0.37,0.466 -9.12,11.519 -16.9,19.511 l -0.04,0.048 -0.05,0.045 c -0.37,0.351 -37.18,35.212 -44.85,52.356 l -0.84,1.86 h -196.12 z m 152.95,-70.899 c 13.06,-14.275 30.02,-30.046 30.68,-30.653 15.39,-14.692 10.67,-28.661 10.01,-30.36 -5.14,-8.751 -12.35,-13.004 -22.01,-13.004 -14.71,0 -30.33,10.123 -34.76,13.223 v 60.795 z m -93.69,0 v -60.795 c -4.44,-3.099 -20.06,-13.223 -34.77,-13.223 -9.66,0 -16.87,4.255 -22.01,13.007 -0.64,1.631 -5.42,15.631 10.01,30.357 0.66,0.607 17.62,16.378 30.68,30.653 z"
       fill="#eeeed5"
       id="path2151" />
    <path
       d="m 2272.95,557.202 v 31.442 h 31.76 v 47.162 h -30.19 l 7.24,33.327 c 0,0 20.12,-12.438 47.23,-15.692 4.09,-0.491 8.33,-0.773 12.69,-0.773 17.71,0 37.32,4.67 55.78,18.981 0,0 60.33,49.488 10.81,122.113 0,0 -8.93,11.301 -16.68,19.268 0,0 -37.55,35.438 -45.57,53.358 h -192.05 c -8.01,-17.921 -45.56,-53.358 -45.56,-53.358 -7.76,-7.967 -16.69,-19.268 -16.69,-19.268 -49.51,-72.625 10.82,-122.113 10.82,-122.113 18.47,-14.314 38.06,-18.983 55.79,-18.981 33.27,0.003 59.91,16.466 59.91,16.466 l 7.23,-33.327 h -30.18 v -47.162 h 31.75 v -31.442 z m 12.71,244.574 h 20.62 c 13.42,-14.812 31.44,-31.507 31.44,-31.507 18.03,-17.188 10.69,-34.041 10.69,-34.041 -6.43,-11.07 -15.54,-14.759 -24.84,-14.758 -18.59,0.002 -37.91,14.758 -37.91,14.758 z m -91.94,0 h 20.62 v -65.548 c 0,0 -19.32,-14.759 -37.91,-14.758 -9.3,0 -18.41,3.69 -24.84,14.758 0,0 -7.34,16.853 10.69,34.041 0,0 18.03,16.696 31.44,31.507 z m 85.52,-250.862 h -6.29 -45.9 -6.29 v 6.288 25.153 h -25.47 -6.29 v 6.288 47.162 6.288 h 6.29 22.39 l -3.82,17.594 c -2.92,-1.405 -6.58,-3.036 -10.86,-4.664 -10.36,-3.943 -26.53,-8.643 -44.67,-8.644 -22.2,-10e-4 -42.26,6.829 -59.64,20.299 l -0.07,0.054 -0.07,0.055 c -0.66,0.546 -16.4,13.632 -25.79,36.276 -5.56,13.398 -7.74,27.372 -6.5,41.531 1.54,17.511 8.36,35.245 20.27,52.711 l 0.13,0.183 0.13,0.174 c 0.38,0.472 9.23,11.648 17.12,19.755 l 0.09,0.095 0.1,0.092 c 10.19,9.62 37.99,37.602 44.14,51.354 l 1.66,3.72 h 4.08 192.05 4.07 l 1.67,-3.72 c 6.15,-13.763 33.95,-41.736 44.14,-51.354 l 0.09,-0.092 0.1,-0.095 c 7.89,-8.107 16.74,-19.283 17.11,-19.755 l 0.14,-0.174 0.12,-0.183 c 11.91,-17.466 18.73,-35.2 20.27,-52.711 1.25,-14.159 -0.94,-28.133 -6.49,-41.531 -9.39,-22.644 -25.13,-35.731 -25.8,-36.276 l -0.07,-0.055 -0.06,-0.054 c -17.38,-13.469 -37.44,-20.299 -59.64,-20.299 -4.4,0 -8.92,0.275 -13.43,0.818 -18.31,2.197 -33.49,8.317 -42.11,12.481 l -3.81,-17.585 h 22.38 6.29 v -6.288 -47.162 -6.288 h -6.29 -25.47 v -25.153 z m 12.71,188.583 c 5.45,-3.636 19,-11.737 31.62,-11.738 8.36,0 14.63,3.668 19.15,11.208 0.72,2.077 4.02,13.992 -9.31,26.722 -1.09,1.009 -16.92,15.725 -29.9,29.8 h -11.56 z m -134.68,-0.53 c 4.53,-7.54 10.8,-11.208 19.16,-11.208 12.61,0 26.17,8.1 31.62,11.738 v 55.991 h -11.56 c -12.98,-14.075 -28.82,-28.791 -29.9,-29.8 -13.33,-12.729 -10.03,-24.644 -9.32,-26.721 z"
       fill="#000000"
       id="path2153" />
    <path
       d="m 2100.35,945.941 0.05,-3.189 c 0.31,-21.763 3.7,-37.39 3.84,-38.045 3.76,-16.715 11.47,-28.697 22.91,-35.626 8.94,-5.416 17.29,-5.837 19.64,-5.837 0.24,0 0.42,0.004 0.52,0.008 h 205.38 c 0.1,-0.004 0.28,-0.008 0.53,-0.008 2.34,0 10.69,0.42 19.63,5.836 11.44,6.929 19.15,18.911 22.9,35.613 0.15,0.669 3.54,16.296 3.85,38.059 l 0.05,3.189 z"
       fill="#eeeed5"
       id="path2157"
       inkscape:export-filename="./path2157.svg"
       inkscape:export-xdpi="96"
       inkscape:export-ydpi="96" />
    <path
       d="m 2353.22,866.388 c 3.85,0 31,1.352 39.47,38.995 0,0 3.46,15.721 3.77,37.415 h -292.92 c 0.32,-21.694 3.77,-37.415 3.77,-37.415 8.47,-37.641 35.61,-38.995 39.48,-38.995 0.29,0 0.45,0.008 0.45,0.008 h 205.52 c 0,0 0.15,-0.008 0.46,-0.008 z m 0,-6.288 c -0.25,0 -0.44,0.004 -0.58,0.008 h -205.28 c -0.14,-0.004 -0.33,-0.008 -0.57,-0.008 -2.56,0 -11.63,0.454 -21.27,6.292 -5.5,3.328 -10.26,7.84 -14.16,13.412 -4.63,6.612 -8.06,14.755 -10.18,24.2 v 0.014 l -0.01,0.015 c -0.14,0.667 -3.6,16.597 -3.92,38.675 l -0.09,6.379 h 6.38 292.92 6.38 l -0.09,-6.379 c -0.32,-22.078 -3.77,-38.008 -3.92,-38.675 l -0.01,-0.015 v -0.014 c -2.12,-9.445 -5.55,-17.588 -10.18,-24.2 -3.9,-5.572 -8.66,-10.084 -14.16,-13.412 -9.64,-5.838 -18.71,-6.292 -21.26,-6.292 z"
       fill="#000000"
       id="path2159" />
  </g>
  <defs
     id="defs2264">
    <clipPath
       id="clip0_1893_32951">
      <rect
         width="4000"
         height="1000"
         fill="#ffffff"
         id="rect2261"
         x="0"
         y="0" />
    </clipPath>
  </defs>
</svg>
