<?xml version="1.0" encoding="UTF-8" standalone="no"?>
<svg
   width="331.33405"
   height="396.36401"
   viewBox="0 0 331.33405 396.36401"
   fill="none"
   version="1.1"
   id="svg2266"
   sodipodi:docname="theme 1 (a).svg"
   xmlns:inkscape="http://www.inkscape.org/namespaces/inkscape"
   xmlns:sodipodi="http://sodipodi.sourceforge.net/DTD/sodipodi-0.dtd"
   xmlns="http://www.w3.org/2000/svg"
   xmlns:svg="http://www.w3.org/2000/svg">
  <sodipodi:namedview
     id="namedview2268"
     pagecolor="#ffffff"
     bordercolor="#000000"
     borderopacity="0.25"
     inkscape:showpageshadow="2"
     inkscape:pageopacity="0.0"
     inkscape:pagecheckerboard="0"
     inkscape:deskcolor="#d1d1d1"
     showgrid="false" />
  <g
     clip-path="url(#clip0_1893_32951)"
     id="g2259"
     transform="translate(-584.33197,-551.81799)">
    <path
       d="m 662.585,868.627 -0.407,-2.67 c -0.068,-0.451 -1.624,-11.238 3.862,-27.533 3.179,-9.445 8.09,-18.852 14.594,-27.957 8.076,-11.307 18.65,-22.185 31.431,-32.336 l 0.112,-0.09 0.121,-0.08 c 0.319,-0.209 32.13,-21.297 37.029,-44.436 0.726,-3.419 0.816,-6.754 0.271,-9.913 -0.08,-0.415 -2,-10.158 -7.349,-17.585 -2.64,3.424 -7.299,9.107 -13.4,15.121 -13.011,12.823 -25.767,20.564 -37.912,23.011 -0.343,0.072 -0.736,0.146 -1.218,0.229 l -0.241,0.042 -0.245,0.004 c -0.063,10e-4 -6.476,0.108 -10.039,0.31 l -0.104,0.006 -0.105,-0.002 c -0.512,0.004 -13.196,0.271 -23.05,17.555 -0.268,0.5 -2.526,4.647 -5.567,8.397 l -0.943,1.164 h -0.043 c -1.228,1.395 -2.437,2.533 -3.604,3.397 l -0.898,0.664 -1.115,-0.051 c -1.865,-0.086 -45.683,-2.334 -54.002,-24.648 -0.809,-1.703 -5.871,-13.426 2.249,-24.477 10.037,-13.575 36.801,-50.392 40.126,-57.712 0.066,-0.147 7.308,-16.362 14.071,-37.648 0.443,-2.002 4.072,-15.454 23.767,-29.803 0.466,-0.362 11.955,-9.461 13.248,-22.935 l 0.006,-0.058 c 0.282,-2.465 1.922,-14.897 6.679,-19.491 0.735,-0.813 3.993,-4.139 8.098,-4.139 1.93,0 3.747,0.736 5.258,2.131 l 0.055,0.05 31.205,31.664 c 6.403,0.129 36.597,1.781 68.276,20.94 23.119,13.977 41.891,34.023 55.792,59.583 l 0.069,0.128 0.058,0.132 c 0.133,0.311 13.43,31.518 18.961,70.534 3.261,23.002 3.237,44.217 -0.069,63.055 -4.166,23.738 -13.578,43.748 -27.976,59.475 l -0.054,0.059 -5.989,5.914 z"
       fill="#eeeed5"
       id="path2135" />
    <path
       d="m 698.003,558.106 c 1.032,0 2.102,0.354 3.125,1.297 l 32.069,32.542 c 0,0 0.138,-0.003 0.403,-0.003 3.849,0 34.736,0.64 67.569,20.496 19.232,11.627 39.132,29.85 54.657,58.396 0,0 52.803,122.721 -8.515,189.697 l -5.015,4.951 H 665.285 c 0,0 -6.288,-41.188 48.733,-84.891 0,0 33.151,-21.703 38.384,-46.417 0.776,-3.659 0.937,-7.389 0.289,-11.12 0,0 -2.516,-13.73 -10.587,-22.113 0,0 -23.974,34.532 -51.789,40.135 -0.378,0.079 -0.755,0.148 -1.136,0.214 0,0 -6.495,0.108 -10.164,0.315 0,0 -0.004,0 -0.012,0 -0.462,0 -14.995,0.152 -25.824,19.181 0,0 -2.238,4.213 -5.257,7.935 h -0.003 c -1.238,1.527 -2.612,2.973 -4.015,4.012 0,0 -43.703,-1.99 -51.249,-22.742 0,0 -5.659,-11.111 1.886,-21.38 0,0 36.265,-49.049 40.456,-58.273 0,0 7.335,-16.346 14.252,-38.147 0,0 2.452,-13.416 22.606,-28.086 0,0 13.025,-9.854 14.494,-25.153 0,0 1.572,-13.73 5.816,-17.66 0.002,-0.002 2.743,-3.186 5.838,-3.186 z m 0,-6.288 c -5.246,0 -9.174,3.802 -10.359,5.098 -2.642,2.589 -4.585,6.811 -6.098,13.237 -0.996,4.234 -1.425,7.927 -1.442,8.082 l -0.007,0.057 -0.006,0.058 c -1.146,11.94 -11.45,20.282 -12.006,20.721 -9.004,6.566 -15.893,13.741 -20.473,21.327 -3.065,5.075 -4.126,8.777 -4.446,10.175 -6.618,20.799 -13.68,36.685 -13.901,37.181 -2.888,6.322 -25.923,38.379 -39.778,57.119 l -0.006,0.007 -0.005,0.008 c -8.922,12.141 -3.773,25.024 -2.623,27.539 2.266,5.998 6.891,11.131 13.752,15.26 5.08,3.059 11.446,5.596 18.921,7.543 12.365,3.221 23.62,3.764 24.094,3.785 l 2.231,0.102 1.796,-1.328 c 1.024,-0.758 2.065,-1.688 3.112,-2.779 h 0.159 l 1.891,-2.328 c 3.141,-3.873 5.493,-8.144 5.875,-8.85 8.678,-15.197 19.492,-15.905 20.333,-15.936 l 0.131,0.002 0.224,-0.013 c 3.5,-0.198 9.85,-0.304 9.913,-0.306 l 0.49,-0.008 0.482,-0.083 c 0.508,-0.089 0.928,-0.168 1.32,-0.249 22.121,-4.465 41.384,-24.822 50.36,-35.76 3.203,5.986 4.489,12.299 4.565,12.691 0.474,2.758 0.389,5.685 -0.251,8.701 -1.876,8.859 -8.563,18.966 -19.339,29.228 -8.431,8.027 -16.26,13.182 -16.338,13.232 l -0.241,0.158 -0.226,0.18 c -13.01,10.334 -23.787,21.426 -32.032,32.971 -6.686,9.359 -11.737,19.043 -15.017,28.781 -5.727,17.012 -4.063,28.529 -3.99,29.012 l 0.815,5.34 h 5.401 177.013 2.582 l 1.837,-1.815 5.015,-4.951 0.112,-0.111 0.107,-0.117 c 14.808,-16.174 24.482,-36.717 28.754,-61.055 3.363,-19.164 3.392,-40.709 0.085,-64.039 -2.921,-20.604 -7.963,-38.854 -11.678,-50.534 -4.04,-12.7 -7.369,-20.477 -7.509,-20.801 l -0.114,-0.266 -0.138,-0.254 c -14.172,-26.057 -33.325,-46.503 -56.928,-60.773 -14.39,-8.701 -30.063,-14.913 -46.583,-18.46 -10.158,-2.181 -17.976,-2.755 -21.971,-2.898 l -30.264,-30.708 -0.104,-0.106 -0.109,-0.101 c -2.099,-1.94 -4.655,-2.966 -7.388,-2.966 z"
       fill="#000000"
       id="path2137" />
    <path
       d="m 613.18,945.037 0.046,-3.189 c 0.315,-21.764 3.702,-37.391 3.847,-38.045 3.758,-16.717 11.462,-28.697 22.901,-35.627 8.942,-5.416 17.294,-5.836 19.641,-5.836 0.247,0 0.424,0.004 0.523,0.008 h 205.383 c 0.1,-0.004 0.276,-0.008 0.523,-0.008 2.347,0 10.697,0.42 19.639,5.836 11.441,6.928 19.146,18.91 22.9,35.613 0.148,0.668 3.534,16.295 3.85,38.059 l 0.046,3.189 z"
       fill="#eeeed5"
       id="path2145"
       inkscape:export-filename="./path2145.svg"
       inkscape:export-xdpi="96"
       inkscape:export-ydpi="96" />
    <path
       d="m 866.042,865.482 c 3.86,0 31.01,1.353 39.472,38.996 0,0 3.459,15.721 3.773,37.414 H 616.369 c 0.315,-21.693 3.773,-37.414 3.773,-37.414 8.462,-37.641 35.608,-38.996 39.472,-38.996 0.299,0 0.459,0.008 0.459,0.008 h 205.512 c -0.001,0 0.158,-0.008 0.457,-0.008 z m 10e-4,-6.287 c -0.243,0 -0.435,0.004 -0.573,0.008 H 660.185 c -0.137,-0.004 -0.329,-0.008 -0.572,-0.008 -2.553,0 -11.63,0.453 -21.27,6.291 -5.493,3.328 -10.258,7.84 -14.159,13.412 -4.63,6.613 -8.055,14.756 -10.178,24.201 l -0.003,0.014 -0.004,0.014 c -0.146,0.668 -3.599,16.598 -3.919,38.674 l -0.092,6.381 h 6.38 292.918 6.38 l -0.093,-6.381 c -0.32,-22.076 -3.773,-38.006 -3.919,-38.674 l -0.003,-0.014 -0.004,-0.014 c -2.123,-9.445 -5.548,-17.588 -10.178,-24.201 -3.901,-5.572 -8.665,-10.084 -14.159,-13.412 -9.637,-5.838 -18.714,-6.291 -21.267,-6.291 z"
       fill="#000000"
       id="path2147" />
  </g>
  <defs
     id="defs2264">
    <clipPath
       id="clip0_1893_32951">
      <rect
         width="4000"
         height="1000"
         fill="#ffffff"
         id="rect2261"
         x="0"
         y="0" />
    </clipPath>
  </defs>
</svg>
