<?xml version="1.0" encoding="UTF-8" standalone="no"?>
<svg
   width="231.21779"
   height="291.77002"
   viewBox="0 0 231.21779 291.77002"
   fill="none"
   version="1.1"
   id="svg2266"
   sodipodi:docname="theme 1 (a).svg"
   xmlns:inkscape="http://www.inkscape.org/namespaces/inkscape"
   xmlns:sodipodi="http://sodipodi.sourceforge.net/DTD/sodipodi-0.dtd"
   xmlns="http://www.w3.org/2000/svg"
   xmlns:svg="http://www.w3.org/2000/svg">
  <sodipodi:namedview
     id="namedview2268"
     pagecolor="#ffffff"
     bordercolor="#000000"
     borderopacity="0.25"
     inkscape:showpageshadow="2"
     inkscape:pageopacity="0.0"
     inkscape:pagecheckerboard="0"
     inkscape:deskcolor="#d1d1d1"
     showgrid="false" />
  <g
     clip-path="url(#clip0_1893_32951)"
     id="g2259"
     transform="translate(-134.3886,-104.115)">
    <path
       d="m 137.596,392.741 -0.048,-3.096 c -0.213,-13.773 2.249,-27.686 2.354,-28.272 3.416,-18.143 15.994,-31.573 17.08,-32.705 4.691,-5.284 20.102,-15.334 22.35,-16.788 19.298,-14.818 27.724,-31.097 31.393,-42.151 3.99,-12.019 3.395,-20.658 3.389,-20.744 l -0.256,-3.381 3.391,-0.008 h 68.911 l -0.273,3.396 c -0.006,0.078 -0.602,8.718 3.389,20.736 3.671,11.055 12.097,27.333 31.395,42.151 2.248,1.454 17.657,11.504 22.35,16.788 1.086,1.132 13.664,14.563 17.074,32.678 0.11,0.613 2.572,14.526 2.358,28.299 l -0.048,3.096 H 137.596 Z"
       fill="#eeeed5"
       id="path2035"
       inkscape:export-filename="path2035.svg"
       inkscape:export-xdpi="96"
       inkscape:export-ydpi="96" />
    <path
       d="m 282.751,248.741 c 0,0 -2.883,35.843 36.103,65.712 0,0 17.293,11.161 21.852,16.349 0,0 12.941,13.31 16.296,31.127 0,0 2.516,14.042 2.305,27.668 H 140.69 c -0.21,-13.626 2.305,-27.668 2.305,-27.668 3.355,-17.817 16.296,-31.127 16.296,-31.127 4.56,-5.188 21.852,-16.349 21.852,-16.349 38.987,-29.869 36.104,-65.712 36.104,-65.712 z m 6.888,-6.35 -6.888,0.063 h -65.504 -6.883 l 0.613,6.776 c 0.024,0.405 0.453,8.565 -3.341,19.819 -5.16,15.307 -15.294,28.851 -30.121,40.262 -3.439,2.225 -17.964,11.767 -22.848,17.228 -1.454,1.527 -14.322,15.48 -17.853,34.228 l -0.005,0.026 -0.005,0.028 c -0.107,0.598 -2.62,14.802 -2.402,28.874 l 0.096,6.19 h 6.191 218.616 6.191 l 0.097,-6.19 c 0.218,-14.072 -2.296,-28.276 -2.402,-28.874 l -0.005,-0.028 -0.006,-0.026 c -3.529,-18.747 -16.398,-32.7 -17.853,-34.228 -4.883,-5.461 -19.408,-15.003 -22.847,-17.228 -14.827,-11.411 -24.961,-24.955 -30.121,-40.262 -3.795,-11.255 -3.365,-19.415 -3.341,-19.819 z"
       fill="#000000"
       id="path2051" />
    <path
       d="m 187.588,251.886 -0.926,-1.462 C 180.2,240.22 181.414,224.32 181.469,223.648 l 0.127,-1.558 29.881,-19.016 c -10.945,-10.47 -17.127,-24.835 -17.127,-40.163 0,-30.687 24.964,-55.651 55.65,-55.651 20.118,0 38.731,10.912 48.574,28.477 4.629,8.256 7.076,17.652 7.076,27.175 0,15.328 -6.183,29.693 -17.128,40.163 l 29.882,19.016 0.127,1.558 c 0.055,0.672 1.269,16.572 -5.194,26.776 l -0.926,1.462 H 187.588 Z"
       fill="#eeeed5"
       id="path2211" />
    <path
       d="m 250,110.403 c 19.689,0 36.846,10.834 45.831,26.869 4.251,7.581 6.676,16.324 6.676,25.638 0,16.694 -7.795,31.569 -19.94,41.184 h 1.704 l 31.127,19.808 c 0,0 1.258,15.406 -4.716,24.839 H 189.318 c -5.974,-9.433 -4.716,-24.839 -4.716,-24.839 l 31.127,-19.808 h 1.704 c -12.146,-9.615 -19.94,-24.49 -19.94,-41.184 0,-28.998 23.509,-52.507 52.507,-52.507 z m 0,-6.288 c -7.935,0 -15.635,1.555 -22.888,4.623 -7.002,2.962 -13.289,7.2 -18.686,12.598 -5.398,5.397 -9.636,11.685 -12.598,18.687 -3.067,7.253 -4.623,14.953 -4.623,22.888 0,9.138 2.041,17.897 6.067,26.035 2.425,4.902 5.564,9.48 9.264,13.546 l -25.31,16.107 -2.638,1.678 -0.254,3.115 c -0.015,0.179 -0.352,4.439 0.12,9.932 0.661,7.691 2.528,14.011 5.551,18.783 l 1.852,2.924 h 3.461 121.363 3.46 l 1.852,-2.924 c 3.022,-4.773 4.891,-11.092 5.552,-18.783 0.472,-5.492 0.135,-9.753 0.12,-9.932 l -0.255,-3.115 -2.637,-1.678 -25.311,-16.107 c 3.7,-4.065 6.839,-8.643 9.265,-13.546 4.025,-8.138 6.067,-16.897 6.067,-26.035 0,-10.06 -2.586,-19.988 -7.478,-28.713 -5.022,-8.961 -12.338,-16.488 -21.157,-21.768 -9.088,-5.44 -19.516,-8.315 -30.159,-8.315 z"
       fill="#000000"
       id="path2227" />
  </g>
  <defs
     id="defs2264">
    <clipPath
       id="clip0_1893_32951">
      <rect
         width="4000"
         height="1000"
         fill="#ffffff"
         id="rect2261"
         x="0"
         y="0" />
    </clipPath>
  </defs>
</svg>
