<?xml version="1.0" encoding="UTF-8" standalone="no"?>
<svg
   width="390.5"
   height="393.633"
   viewBox="0 0 390.5 393.633"
   fill="none"
   version="1.1"
   id="svg2266"
   sodipodi:docname="theme 1 (a).svg"
   xmlns:inkscape="http://www.inkscape.org/namespaces/inkscape"
   xmlns:sodipodi="http://sodipodi.sourceforge.net/DTD/sodipodi-0.dtd"
   xmlns="http://www.w3.org/2000/svg"
   xmlns:svg="http://www.w3.org/2000/svg">
  <sodipodi:namedview
     id="namedview2268"
     pagecolor="#ffffff"
     bordercolor="#000000"
     borderopacity="0.25"
     inkscape:showpageshadow="2"
     inkscape:pageopacity="0.0"
     inkscape:pagecheckerboard="0"
     inkscape:deskcolor="#d1d1d1"
     showgrid="false" />
  <g
     clip-path="url(#clip0_1893_32951)"
     id="g2259"
     transform="translate(-1554.75,-553.18402)">
    <path
       d="m 1653.74,867.263 -63.08,-149.708 c -8.87,-1.876 -16.93,-6.661 -22.86,-13.601 -6.39,-7.471 -9.91,-17.006 -9.91,-26.848 0,-22.798 18.55,-41.345 41.35,-41.345 6.18,0 12.12,1.332 17.67,3.96 6.97,3.301 12.88,8.48 17.08,14.979 4.31,6.676 6.59,14.424 6.59,22.405 0,6.243 -1.36,12.239 -4.03,17.826 l 34.42,37.485 4.58,-94.545 c -6.94,-3.219 -12.86,-8.222 -17.23,-14.57 -4.92,-7.142 -7.52,-15.517 -7.52,-24.22 0,-23.576 19.18,-42.757 42.76,-42.757 3.44,0 6.86,0.41 10.18,1.221 9.14,2.232 17.41,7.539 23.3,14.94 6.07,7.63 9.27,16.827 9.27,26.596 0,11.554 -4.68,22.602 -12.93,30.634 l 26.62,78.028 26.62,-78.028 c -8.24,-8.032 -12.93,-19.08 -12.93,-30.634 0,-23.576 19.18,-42.757 42.75,-42.757 10.74,0 20.91,3.95 28.8,11.151 h 0.03 l 0.91,0.886 c 8.4,8.125 13.02,19.034 13.02,30.72 0,16.698 -9.67,31.787 -24.75,38.79 l 4.58,94.545 34.42,-37.483 c -2.64,-5.538 -4.03,-11.655 -4.03,-17.828 0,-22.798 18.55,-41.345 41.34,-41.345 12.57,0 24.3,5.616 32.2,15.41 l 0.55,0.696 0.67,0.853 v 0.037 c 5.19,7.104 7.93,15.499 7.93,24.349 0,1.899 -0.13,3.813 -0.39,5.688 -1.6,11.583 -8.09,21.996 -17.82,28.572 l -0.04,0.028 c -4.44,2.997 -9.31,5.065 -14.52,6.161 l -63.08,149.707 h -192.52 z"
       fill="#eeeed5"
       id="path2163" />
    <path
       d="m 1806.44,559.472 c 10.71,0 20.43,4.248 27.55,11.152 h 0.01 c 7.44,7.2 12.06,17.293 12.06,28.461 0,16.333 -9.88,30.353 -24,36.415 -0.28,0.122 -0.57,0.238 -0.85,0.354 l 5.04,104.237 41,-44.641 c -2.99,-5.445 -4.69,-11.695 -4.69,-18.343 0,-21.097 17.11,-38.201 38.2,-38.201 12.03,0 22.75,5.557 29.75,14.24 l 0.11,0.139 0.33,0.418 0.08,0.101 c 0,0 0,0 0,0.003 4.97,6.448 7.93,14.529 7.93,23.301 0,1.786 -0.12,3.541 -0.36,5.261 -1.51,10.976 -7.68,20.462 -16.46,26.394 l -0.01,0.006 c -4.43,3.003 -9.53,5.094 -15.03,6.012 L 1844.17,864.12 H 1655.83 L 1592.9,714.781 c -18.08,-3.021 -31.86,-18.735 -31.86,-37.673 0,-21.097 17.1,-38.201 38.2,-38.201 5.83,0 11.37,1.311 16.32,3.657 12.93,6.118 21.88,19.286 21.88,34.544 0,5.986 -1.38,11.652 -3.84,16.695 -0.27,0.557 -0.56,1.107 -0.85,1.648 l 41,44.641 5.04,-104.237 c -14.56,-5.854 -24.85,-20.109 -24.85,-36.77 0,-21.877 17.74,-39.613 39.61,-39.613 3.26,0 6.42,0.394 9.44,1.132 17.32,4.233 30.18,19.856 30.18,38.482 0,11.837 -5.2,22.458 -13.42,29.718 l 30.25,88.683 30.25,-88.683 c -8.23,-7.26 -13.42,-17.881 -13.42,-29.718 0,-21.878 17.74,-39.614 39.61,-39.614 z m 0,-6.288 c -12.26,0 -23.78,4.775 -32.45,13.444 -8.67,8.67 -13.45,20.196 -13.45,32.457 0,11.731 4.5,22.974 12.48,31.453 l -23.02,67.471 -23.02,-67.471 c 7.98,-8.479 12.48,-19.724 12.48,-31.453 0,-5.276 -0.89,-10.451 -2.65,-15.383 -1.69,-4.766 -4.15,-9.196 -7.31,-13.17 -6.32,-7.944 -15.2,-13.64 -25.02,-16.037 -3.56,-0.87 -7.23,-1.311 -10.92,-1.311 -12.27,0 -23.79,4.775 -32.46,13.444 -8.67,8.67 -13.45,20.196 -13.45,32.457 0,9.343 2.79,18.334 8.07,26.003 4.29,6.222 9.96,11.239 16.59,14.695 l -4.12,84.966 -27.93,-30.414 c 2.3,-5.449 3.47,-11.233 3.47,-17.227 0,-8.589 -2.46,-16.926 -7.1,-24.111 -4.52,-6.991 -10.87,-12.565 -18.38,-16.116 -5.96,-2.827 -12.36,-4.262 -19.02,-4.262 -11.88,0 -23.05,4.628 -31.45,13.031 -8.4,8.403 -13.03,19.575 -13.03,31.458 0,10.591 3.78,20.851 10.66,28.891 6.02,7.04 14.07,12.02 22.97,14.257 l 61.65,146.307 1.62,3.846 h 4.18 188.34 4.17 l 1.63,-3.846 61.65,-146.303 c 4.99,-1.246 9.68,-3.341 13.98,-6.249 l 0.06,-0.038 c 10.47,-7.075 17.45,-18.282 19.17,-30.745 0.28,-2.021 0.42,-4.078 0.42,-6.119 0,-9.174 -2.74,-17.893 -7.93,-25.355 v -0.108 l -1.33,-1.708 -0.08,-0.1 -0.01,-0.014 -0.01,-0.015 -0.33,-0.418 -0.01,-0.01 -0.01,-0.011 -0.11,-0.138 -0.01,-0.016 -0.01,-0.016 c -8.5,-10.537 -21.13,-16.581 -34.65,-16.581 -11.88,0 -23.05,4.628 -31.46,13.031 -8.4,8.403 -13.03,19.575 -13.03,31.458 0,5.922 1.19,11.796 3.47,17.225 l -27.94,30.416 -4.11,-84.967 c 15.09,-7.873 24.65,-23.489 24.65,-40.697 0,-6.324 -1.26,-12.453 -3.75,-18.216 -2.41,-5.565 -5.85,-10.532 -10.22,-14.764 l -1.83,-1.769 h -0.11 c -8.33,-7.21 -18.88,-11.152 -29.99,-11.152 z"
       fill="#000000"
       id="path2165" />
    <path
       d="m 1600.35,943.673 0.05,-3.19 c 0.31,-21.763 3.7,-37.39 3.84,-38.045 3.76,-16.715 11.47,-28.697 22.9,-35.626 8.95,-5.416 17.3,-5.837 19.65,-5.837 0.24,0 0.42,0.004 0.52,0.008 h 205.38 c 0.1,-0.004 0.28,-0.008 0.52,-0.008 2.35,0 10.7,0.42 19.64,5.836 11.44,6.929 19.15,18.911 22.9,35.613 0.15,0.669 3.54,16.296 3.85,38.059 l 0.05,3.19 z"
       fill="#eeeed5"
       id="path2169"
       inkscape:export-filename="./path2169.svg"
       inkscape:export-xdpi="96"
       inkscape:export-ydpi="96" />
    <path
       d="m 1853.21,864.118 c 3.86,0 31.01,1.353 39.48,38.995 0,0 3.45,15.721 3.77,37.415 h -292.92 c 0.31,-21.694 3.77,-37.415 3.77,-37.415 8.46,-37.641 35.61,-38.995 39.47,-38.995 0.3,0 0.46,0.009 0.46,0.009 h 205.52 c 0,0 0.16,-0.009 0.45,-0.009 z m 0,-6.288 c -0.24,0 -0.43,0.004 -0.57,0.008 h -205.28 c -0.14,-0.004 -0.33,-0.008 -0.57,-0.008 -2.56,0 -11.63,0.454 -21.27,6.292 -5.5,3.328 -10.26,7.84 -14.16,13.412 -4.63,6.612 -8.06,14.755 -10.18,24.2 v 0.014 l -0.01,0.015 c -0.14,0.667 -3.6,16.597 -3.92,38.675 l -0.09,6.379 h 6.38 292.92 6.38 l -0.09,-6.379 c -0.32,-22.078 -3.78,-38.008 -3.92,-38.675 l -0.01,-0.015 v -0.014 c -2.12,-9.445 -5.55,-17.588 -10.18,-24.2 -3.9,-5.572 -8.66,-10.084 -14.16,-13.412 -9.64,-5.838 -18.71,-6.292 -21.27,-6.292 z"
       fill="#000000"
       id="path2171" />
  </g>
  <defs
     id="defs2264">
    <clipPath
       id="clip0_1893_32951">
      <rect
         width="4000"
         height="1000"
         fill="#ffffff"
         id="rect2261"
         x="0"
         y="0" />
    </clipPath>
  </defs>
</svg>
