<?xml version="1.0" encoding="UTF-8" standalone="no"?>
<svg
   width="305.6778"
   height="392.56702"
   viewBox="0 0 305.6778 392.56702"
   fill="none"
   version="1.1"
   id="svg2266"
   sodipodi:docname="theme 1 (a).svg"
   xmlns:inkscape="http://www.inkscape.org/namespaces/inkscape"
   xmlns:sodipodi="http://sodipodi.sourceforge.net/DTD/sodipodi-0.dtd"
   xmlns="http://www.w3.org/2000/svg"
   xmlns:svg="http://www.w3.org/2000/svg">
  <sodipodi:namedview
     id="namedview2268"
     pagecolor="#ffffff"
     bordercolor="#000000"
     borderopacity="0.25"
     inkscape:showpageshadow="2"
     inkscape:pageopacity="0.0"
     inkscape:pagecheckerboard="0"
     inkscape:deskcolor="#d1d1d1"
     showgrid="false" />
  <g
     clip-path="url(#clip0_1893_32951)"
     id="g2259"
     transform="translate(-97.160202,-553.71698)">
    <path
       d="m 143.701,866.735 2.072,-17.295 1.406,-11.709 18.655,-155.659 h 168.332 l 18.655,155.659 3.478,29.004 z"
       fill="#eeeed5"
       id="path2101" />
    <path
       d="m 331.376,685.218 18.323,152.891 3.057,25.484 H 147.244 l 1.65,-13.773 v -0.004 l 1.405,-11.707 18.324,-152.891 z m 5.579,-6.288 h -5.579 -162.752 -5.579 l -0.664,5.54 -18.324,152.889 -1.405,11.709 -0.045,0.373 v 0.004 l -1.605,13.4 -0.844,7.037 h 7.087 205.512 7.087 L 359,862.845 355.944,837.359 337.62,684.47 Z"
       fill="#000000"
       id="path2103" />
    <path
       d="m 168.194,688.36 -0.416,-0.116 c -9.645,-2.696 -17.871,-7.408 -24.45,-14.003 -10.559,-10.585 -13.102,-22.263 -13.205,-22.755 l -0.038,-0.184 -6.409,-73.122 2.235,-0.839 c 7.839,-2.941 15.523,-5.331 22.839,-7.102 13.045,-3.156 21.413,-3.497 24.405,-3.497 0.743,0 1.151,0.022 1.196,0.023 l 2.158,0.12 16.464,51.278 h 13.9 l 0.886,-5.408 v -0.502 l 0.124,-0.242 8.299,-50.619 1.801,-0.601 c 7.826,-2.609 17.816,-3.932 29.691,-3.932 0.787,0 1.57,0.006 2.352,0.017 0.766,-0.011 1.533,-0.017 2.304,-0.017 3.729,0 7.314,0.133 10.659,0.395 7.264,0.563 13.667,1.752 19.027,3.537 l 1.803,0.6 9.308,56.773 h 13.901 l 16.463,-51.278 2.159,-0.12 c 0.044,-0.002 0.453,-0.023 1.197,-0.023 2.665,0 10.109,0.278 21.646,2.856 8.127,1.815 16.739,4.419 25.598,7.743 l 2.235,0.839 -6.409,73.123 -0.038,0.184 c -0.061,0.29 -1.552,7.193 -6.945,15.16 -4.956,7.319 -14.308,17.009 -30.71,21.597 l -0.415,0.116 z"
       fill="#eeeed5"
       id="path2107" />
    <path
       d="m 247.674,560.005 c 0.786,0 1.57,0.006 2.352,0.018 0.765,-0.012 1.533,-0.017 2.304,-0.017 3.459,0 6.96,0.114 10.414,0.384 6.455,0.5 12.746,1.544 18.279,3.387 l 9.433,57.534 h 18.864 l 16.504,-51.403 c 0,0 0.345,-0.02 1.023,-0.02 2.531,0 9.706,0.266 20.96,2.78 6.901,1.54 15.341,3.927 25.179,7.618 l -6.185,70.557 c 0,0 -5.449,25.989 -35.425,34.374 H 168.624 c -10.356,-2.896 -17.783,-7.894 -23.071,-13.195 -10.021,-10.045 -12.354,-21.179 -12.354,-21.179 l -6.185,-70.557 c 8.59,-3.223 16.11,-5.449 22.475,-6.989 12.813,-3.101 20.938,-3.409 23.665,-3.409 0.678,0 1.022,0.02 1.022,0.02 l 16.503,51.403 h 18.865 l 1.358,-8.298 c 0,-0.003 0.003,-0.006 0.003,-0.009 l 8.07,-49.227 c 8.494,-2.833 18.771,-3.772 28.699,-3.772 z m 0,-6.288 c -12.215,0 -22.539,1.377 -30.686,4.094 l -3.603,1.201 -0.614,3.747 -7.911,48.256 -0.244,0.476 -0.001,1.008 -0.413,2.523 h -8.936 l -15.102,-47.036 -1.322,-4.118 -4.317,-0.238 c -0.122,-0.007 -0.579,-0.029 -1.37,-0.029 -3.105,0 -11.771,0.35 -25.144,3.585 -7.44,1.802 -15.247,4.229 -23.205,7.214 l -4.472,1.678 0.417,4.759 6.184,70.557 0.032,0.374 0.077,0.366 c 0.11,0.53 2.845,13.092 14.056,24.33 6.967,6.984 15.657,11.967 25.83,14.811 l 0.831,0.233 h 0.862 162.752 0.862 l 0.831,-0.233 c 7.611,-2.129 14.443,-5.483 20.309,-9.971 4.721,-3.611 8.812,-7.948 12.158,-12.892 5.64,-8.329 7.254,-15.489 7.419,-16.278 l 0.077,-0.367 0.032,-0.374 6.185,-70.557 0.417,-4.758 -4.473,-1.679 c -8.993,-3.374 -17.746,-6.021 -26.017,-7.868 -11.841,-2.645 -19.561,-2.931 -22.329,-2.931 -0.792,0 -1.25,0.022 -1.372,0.029 l -4.317,0.238 -1.322,4.118 -15.102,47.036 h -8.938 l -8.568,-52.263 -0.615,-3.749 -3.604,-1.2 c -5.603,-1.865 -12.259,-3.106 -19.78,-3.689 -3.421,-0.267 -7.09,-0.402 -10.899,-0.402 -0.759,0 -1.533,0.005 -2.304,0.016 -0.788,-0.011 -1.579,-0.017 -2.351,-0.017 z"
       fill="#000000"
       id="path2109" />
    <path
       d="m 100.352,943.138 0.046,-3.189 c 0.315,-21.764 3.702,-37.391 3.846,-38.045 3.758,-16.717 11.462,-28.697 22.902,-35.627 8.942,-5.416 17.293,-5.838 19.64,-5.838 0.248,0 0.424,0.006 0.523,0.01 h 205.383 c 0.1,-0.004 0.276,-0.01 0.523,-0.01 2.346,0 10.696,0.422 19.639,5.836 11.44,6.93 19.145,18.912 22.899,35.615 0.147,0.668 3.534,16.295 3.85,38.059 l 0.046,3.189 z"
       fill="#eeeed5"
       id="path2113"
       inkscape:export-filename="./path2113.svg"
       inkscape:export-xdpi="96"
       inkscape:export-ydpi="96" />
    <path
       d="m 353.215,863.584 c 3.859,0 31.009,1.354 39.471,38.996 0,0 3.459,15.721 3.774,37.414 H 103.541 c 0.314,-21.693 3.773,-37.414 3.773,-37.414 8.461,-37.641 35.607,-38.996 39.471,-38.996 0.3,0 0.459,0.008 0.459,0.008 h 205.512 c 0,0 0.159,-0.008 0.459,-0.008 z m 0,-6.287 c -0.243,0 -0.435,0.004 -0.572,0.008 H 147.358 c -0.138,-0.004 -0.33,-0.008 -0.573,-0.008 -2.552,0 -11.63,0.453 -21.269,6.291 -5.494,3.328 -10.258,7.84 -14.159,13.412 -4.631,6.613 -8.055,14.756 -10.179,24.201 l -0.003,0.014 -0.003,0.014 c -0.146,0.668 -3.5998,16.598 -3.9188,38.674 l -0.093,6.381 h 6.3798 292.918 6.38 l -0.093,-6.381 c -0.319,-22.076 -3.772,-38.006 -3.919,-38.674 l -0.003,-0.014 -0.003,-0.014 c -2.124,-9.445 -5.548,-17.588 -10.179,-24.201 -3.901,-5.572 -8.665,-10.084 -14.159,-13.412 -9.637,-5.838 -18.714,-6.291 -21.267,-6.291 z"
       fill="#000000"
       id="path2115" />
  </g>
  <defs
     id="defs2264">
    <clipPath
       id="clip0_1893_32951">
      <rect
         width="4000"
         height="1000"
         fill="#ffffff"
         id="rect2261"
         x="0"
         y="0" />
    </clipPath>
  </defs>
</svg>
